<svg id="Layer_1" data-name="Layer 1" xmlns="http://www.w3.org/2000/svg" viewBox="0 0 618.83 272.53"><defs><style>.cls-1{fill:#fff;}</style></defs><polygon class="cls-1" points="102.99 131 29.81 131 29.81 91.92 95.31 91.92 95.31 64.82 29.81 64.82 29.81 27.1 101.63 27.1 101.63 0 0 0 0 158.1 102.99 158.1 102.99 131"/><rect class="cls-1" x="126.02" width="28.46" height="158.1"/><path class="cls-1" d="M284.91,140.14a62,62,0,0,0,10-21.79L267.4,111.8q-1.8,10.83-8.47,17.5T239.4,136a32,32,0,0,1-15.47-3.72,26.5,26.5,0,0,1-10.84-11.07q-4-7.33-4-18V101q0-10.62,4-18a26.41,26.41,0,0,1,10.84-11.06,31.89,31.89,0,0,1,15.47-3.73q8.58,0,14.34,3.16A22.82,22.82,0,0,1,262.66,80a32.59,32.59,0,0,1,4.07,12.2l27.55-5.88A54,54,0,0,0,284.91,64a49.42,49.42,0,0,0-18.64-15.47q-11.52-5.64-27.55-5.65a63.59,63.59,0,0,0-29.47,6.78,51,51,0,0,0-20.9,19.65q-7.68,12.87-7.67,31.16v3.17q0,18.28,7.67,31.16a50.9,50.9,0,0,0,20.9,19.65,63.59,63.59,0,0,0,29.47,6.78q16,0,27.55-5.65A49.42,49.42,0,0,0,284.91,140.14Z"/><path class="cls-1" d="M401.78,49.69a69.92,69.92,0,0,0-60.07,0,50.76,50.76,0,0,0-21,19.65Q313,82.21,313,100.28v3.61q0,18.08,7.68,30.94a50.7,50.7,0,0,0,21,19.65,69.92,69.92,0,0,0,60.07,0,50.76,50.76,0,0,0,21-19.65q7.66-12.87,7.68-30.94v-3.61q0-18.06-7.68-30.94A50.82,50.82,0,0,0,401.78,49.69Zm-39,88.1a5.46,5.46,0,1,1,5.46-5.46A5.46,5.46,0,0,1,362.79,137.79ZM390,122.41H363a21.23,21.23,0,1,1,21.22-22,11.77,11.77,0,1,1,5.77,22Z"/><path class="cls-1" d="M600.19,48.67a40.29,40.29,0,0,0-18.85-4.4q-12.89,0-19.88,4.74a33,33,0,0,0-10.84,12h-4.07A31,31,0,0,0,535.49,48.9q-7.23-4.63-19.2-4.63-11.07,0-17.84,4.18a25.65,25.65,0,0,0-9.71,9.82h-4.07V46.08h-28v112h28.45V91.92q0-11.52,5.31-17.73t15-6.21q8.58,0,13.33,4.63t4.74,13.89v71.6H552V91.92q0-11.52,5.3-17.73t15-6.21q8.58,0,13.33,4.63t4.74,13.89v71.6h28.46V84.47q0-13.55-5.08-22.47A33,33,0,0,0,600.19,48.67Z"/><path class="cls-1" d="M16.84,199.84H3.62v56.09H16.3q9.7,0,15.08-5.94t5.37-16.48V221.76q-.15-10.24-5.47-16.08T16.84,199.84ZM32.4,233.93q-.12,8.63-4.24,13.27t-11.63,4.64H8V204h8.7q7.63,0,11.66,4.78t4,13.4Z"/><path class="cls-1" d="M58.2,199.07a2.51,2.51,0,0,0-2.08.92,3.5,3.5,0,0,0-.73,2.24,3.38,3.38,0,0,0,.73,2.21,2.51,2.51,0,0,0,2.08.91,2.56,2.56,0,0,0,2.1-.91,3.34,3.34,0,0,0,.75-2.21A3.46,3.46,0,0,0,60.3,200,2.57,2.57,0,0,0,58.2,199.07Z"/><rect class="cls-1" x="56" y="214.25" width="4.32" height="41.68"/><path class="cls-1" d="M102.8,220.06q-3.51-6.59-10.71-6.58-6.78,0-10.17,4.91t-3.39,14.77v4.51c.08,6.16,1.26,10.87,3.57,14.13a11.39,11.39,0,0,0,10,4.9,11.52,11.52,0,0,0,10.63-6v6.62c0,3.76-.83,6.56-2.4,8.41s-4.11,2.76-7.57,2.76q-5.62,0-9.9-4.89l-2,3.08a14.22,14.22,0,0,0,5.3,4.13A15.86,15.86,0,0,0,93,272.53q6.83,0,10.39-3.93t3.6-11.48V214.25h-4Zm-.12,26q-2.85,6.58-9.78,6.58c-3.47,0-6-1.25-7.63-3.77s-2.42-6.45-2.42-11.79v-4.16q0-7.81,2.46-11.56c1.62-2.49,4.17-3.73,7.67-3.73q6.81,0,9.7,7.13Z"/><path class="cls-1" d="M129,199.07a2.5,2.5,0,0,0-2.08.92,3.51,3.51,0,0,0-.74,2.24,3.39,3.39,0,0,0,.74,2.21,2.49,2.49,0,0,0,2.08.91,2.59,2.59,0,0,0,2.1-.91,3.34,3.34,0,0,0,.75-2.21,3.46,3.46,0,0,0-.75-2.24A2.59,2.59,0,0,0,129,199.07Z"/><rect class="cls-1" x="126.75" y="214.25" width="4.32" height="41.68"/><path class="cls-1" d="M161.64,252.58a3.68,3.68,0,0,1-3.41-1.68,10,10,0,0,1-1-5.1V218.1h7.13v-3.85h-7.13V203.61h-4.27v10.64H146.5v3.85h6.44v28.27q.18,10.33,7.7,10.33a10.58,10.58,0,0,0,4.2-.66l-.12-3.85A18,18,0,0,1,161.64,252.58Z"/><path class="cls-1" d="M207,225.84q0-6-3.23-9.2t-9.52-3.16a13.71,13.71,0,0,0-9.67,3.56,11.39,11.39,0,0,0-3.85,8.69l4.28,0a7.69,7.69,0,0,1,2.54-6,9.29,9.29,0,0,1,6.51-2.31q4.27,0,6.49,2c1.48,1.3,2.21,3.43,2.21,6.41v5.82h-7.16q-7.37,0-11.54,3.62a12.14,12.14,0,0,0-4.18,9.71c0,3.75,1,6.63,3,8.66s4.8,3,8.4,3a13.09,13.09,0,0,0,6.56-1.72,13.62,13.62,0,0,0,4.95-4.83,27.56,27.56,0,0,0,.77,5.78h4.55v-.47A28.06,28.06,0,0,1,207,246.3Zm-4.24,19.53a11.45,11.45,0,0,1-4.25,5.24,11.68,11.68,0,0,1-6.69,2q-7.62,0-7.62-7.94a8.49,8.49,0,0,1,3-6.8q3-2.52,8.83-2.6h6.77Z"/><rect class="cls-1" x="227.03" y="196.76" width="4.32" height="59.17"/><path class="cls-1" d="M302.1,229.6a38.07,38.07,0,0,0-9.56-4.36q-6.32-2.09-9.2-4.79a9.06,9.06,0,0,1-2.89-6.94,9.69,9.69,0,0,1,3.06-7.41q3.06-2.86,8.38-2.87a11.08,11.08,0,0,1,8.64,3.49,13,13,0,0,1,3.18,9.14h4.43a16.66,16.66,0,0,0-4.54-12.09,15.59,15.59,0,0,0-11.71-4.7,16.32,16.32,0,0,0-11.44,4A13.55,13.55,0,0,0,276,213.59a13.3,13.3,0,0,0,4.5,10.48q3.44,3,10.75,5.51t10,5.16a10.05,10.05,0,0,1,2.67,7.4,9.68,9.68,0,0,1-3.21,7.62,12.4,12.4,0,0,1-8.53,2.85q-6.09,0-9.67-3.39t-3.59-9.32h-4.39a17.08,17.08,0,0,0,2.29,9,15.09,15.09,0,0,0,6.36,5.81,19.9,19.9,0,0,0,9,2c4.87,0,8.8-1.34,11.76-4a13.61,13.61,0,0,0,4.45-10.61,15.66,15.66,0,0,0-1.54-7.17A14.37,14.37,0,0,0,302.1,229.6Z"/><path class="cls-1" d="M339,213.48a13.33,13.33,0,0,0-11.13,5.24q-4.1,5.24-4.09,14.25v4.93q.16,8.78,4.24,13.79a14.61,14.61,0,0,0,22.13-.12q4.11-5.12,4.1-14.29v-4.43q0-9-4.1-14.21A13.41,13.41,0,0,0,339,213.48Zm11,23.9q0,7.38-2.83,11.35a10.08,10.08,0,0,1-16.14-.16q-2.91-4.11-2.91-11.31v-4.62q.07-7.08,3-11.12a9.82,9.82,0,0,1,15.95.1q2.92,4.14,2.93,11.33Z"/><rect class="cls-1" x="372.42" y="196.76" width="4.32" height="59.17"/><path class="cls-1" d="M418.71,244.75q-2.28,7.86-10.36,7.86a6.57,6.57,0,0,1-5.78-2.92q-2-2.94-2-8.59V214.25h-4.24v27q0,7.64,2.93,11.56t8.55,3.93q7.44,0,11-5.74l.07,5H423V214.25h-4.32Z"/><path class="cls-1" d="M453.18,252.58a3.68,3.68,0,0,1-3.41-1.68,10,10,0,0,1-1-5.1V218.1h7.12v-3.85h-7.12V203.61h-4.28v10.64H438v3.85h6.43v28.27q.19,10.33,7.71,10.33a10.58,10.58,0,0,0,4.2-.66l-.12-3.85A18,18,0,0,1,453.18,252.58Z"/><rect class="cls-1" x="473.55" y="214.25" width="4.32" height="41.68"/><path class="cls-1" d="M475.75,199.07a2.53,2.53,0,0,0-2.09.92,3.56,3.56,0,0,0-.73,2.24,3.44,3.44,0,0,0,.73,2.21,2.53,2.53,0,0,0,2.09.91,2.55,2.55,0,0,0,2.09-.91,3.35,3.35,0,0,0,.76-2.21,3.47,3.47,0,0,0-.76-2.24A2.56,2.56,0,0,0,475.75,199.07Z"/><path class="cls-1" d="M511.17,213.48A13.34,13.34,0,0,0,500,218.72Q496,224,496,233v4.93q.15,8.78,4.24,13.79a14.61,14.61,0,0,0,22.13-.12q4.09-5.12,4.1-14.29v-4.43q0-9-4.1-14.21A13.43,13.43,0,0,0,511.17,213.48Zm11,23.9q0,7.38-2.83,11.35a10.08,10.08,0,0,1-16.14-.16q-2.91-4.11-2.91-11.31v-4.62q.08-7.08,3-11.12a9.25,9.25,0,0,1,7.89-4,9.35,9.35,0,0,1,8.06,4.14q2.92,4.14,2.92,11.33Z"/><path class="cls-1" d="M559.63,213.48a11.09,11.09,0,0,0-6.53,2,15.32,15.32,0,0,0-4.72,5.39l-.12-6.62h-4.08v41.68h4.27V227a15.83,15.83,0,0,1,4.07-6.92,8.56,8.56,0,0,1,6-2.52c2.74,0,4.76.89,6,2.66s1.94,4.52,2,8.24v27.47h4.24V228Q570.53,213.48,559.63,213.48Z"/><path class="cls-1" d="M610.77,237a44.29,44.29,0,0,0-8-4.2c-3.75-1.79-6.19-3.22-7.32-4.27a5.31,5.31,0,0,1-1.69-4.08,6.3,6.3,0,0,1,2.21-5,10,10,0,0,1,12.31.4,7.81,7.81,0,0,1,2.42,5.88H615a11.63,11.63,0,0,0-3.54-8.86c-2.37-2.24-5.52-3.35-9.48-3.35a12.81,12.81,0,0,0-9,3.14,10.22,10.22,0,0,0-3.47,7.95,9.39,9.39,0,0,0,1,4.47,10.86,10.86,0,0,0,3.12,3.49,43.63,43.63,0,0,0,7.45,4,30.27,30.27,0,0,1,7.57,4.42,6.15,6.15,0,0,1,2.24,4.7,6.25,6.25,0,0,1-2.39,5.12,9.78,9.78,0,0,1-6.32,1.92q-4.54,0-6.95-2.13a8.15,8.15,0,0,1-2.6-6h-4.31a11.13,11.13,0,0,0,3.83,8.75,14.57,14.57,0,0,0,10,3.39,14.07,14.07,0,0,0,9.44-3,10.2,10.2,0,0,0,3.58-8.2,9.84,9.84,0,0,0-1.11-4.8A11.88,11.88,0,0,0,610.77,237Z"/></svg>