<svg width="381" height="213" viewBox="0 0 381 213" fill="none" xmlns="http://www.w3.org/2000/svg">
<path d="M334.446 89.8369C320.289 83.6661 305.805 78.067 294.67 66.8565C283.468 55.5784 275.041 41.9007 264.093 30.3908C251.343 16.9835 235.023 6.76298 217.05 2.36491C199.077 -2.03346 179.475 -0.387294 163.015 8.06518C150.494 14.4951 140.338 24.515 132.108 35.8068C124.078 46.8232 120.104 61.8474 111.687 72.0885C103.799 81.6834 87.8447 87.6949 77.2253 93.6527C65.0664 100.474 52.8537 107.716 43.6314 118.386C32.5685 131.189 26.6711 148.506 28.371 165.34C29.8386 179.874 38.347 199.256 52.4269 205.809C65.5216 211.902 83.6652 212.342 97.8428 211.981C99.0347 211.951 100.228 211.961 101.42 211.97C103.933 211.989 106.442 212.01 108.905 211.657C113.03 211.069 117.355 210.273 121.533 210.516C126.501 210.807 131.323 211.599 136.332 211.475C148.376 211.181 160.737 211.3 172.796 211.346C204.602 211.466 236.705 211.727 268.513 211.849C271.189 211.858 273.841 211.787 276.484 211.717C281.426 211.585 286.335 211.452 291.307 211.849C294.729 212.12 298.153 211.978 301.586 211.834C305.43 211.673 309.286 211.512 313.155 211.937C316.26 212.277 319.409 212.138 322.553 211.997C324.371 211.916 326.189 211.836 327.994 211.849C338.928 211.921 349.076 207.973 356.709 200.145C371.426 185.049 381.656 165.138 380.803 143.893C380.409 134.122 378.018 124.18 372.267 116.271C362.444 102.759 348.61 96.0111 334.446 89.8369Z" fill="#EEF4FC"/>
<path d="M99.0244 152.4L99.4449 131.341C99.4591 130.678 98.9517 130.139 98.3147 130.139L92.8738 130.142C92.4786 130.142 92.104 130.353 91.8859 130.704L90.4363 133.033L70.1919 133.042C69.46 133.042 68.8562 133.66 68.8404 134.422L68.4816 152.414C68.4705 153.031 68.9384 153.53 69.5296 153.529L97.9337 153.516C98.5233 153.516 99.0134 153.016 99.0244 152.4Z" fill="#143D73"/>
<path d="M91.5037 152.644H70.2318L73.6746 132.148C73.8185 131.298 74.5551 130.673 75.4182 130.673H94.0977C94.6715 130.673 95.1077 131.189 95.0129 131.756L91.5037 152.644Z" fill="white"/>
<path d="M99.2749 152.444L102.718 132.084C102.827 131.442 102.394 130.921 101.75 130.921H96.2652C95.8653 130.921 95.459 131.126 95.1887 131.464L93.3914 133.714H72.9811C72.2444 133.714 71.5458 134.311 71.4209 135.048L68.4791 152.444C68.3795 153.04 68.7795 153.522 69.3754 153.522H98.0135C98.6094 153.522 99.1737 153.04 99.2749 152.444Z" fill="#3068B2"/>
<path d="M303.27 165.781L308.388 168.34V163.222L303.27 165.781Z" fill="#6C98E3"/>
<path d="M302.852 168.337V163.219L297.734 165.778L302.852 168.337Z" fill="#6C98E3"/>
<path d="M253.078 143.455L258.194 146.014V140.897L253.078 143.455Z" fill="#6C98E3"/>
<path d="M252.66 146.014V140.897L247.541 143.455L252.66 146.014Z" fill="#6C98E3"/>
<path d="M155.63 138.593L160.747 136.034L155.63 133.477V138.593Z" fill="#6C98E3"/>
<path d="M161.16 133.477V138.593L166.279 136.034L161.16 133.477Z" fill="#6C98E3"/>
<path d="M211.806 101.561H216.925L214.365 96.4444L211.806 101.561Z" fill="#6C98E3"/>
<path d="M214.365 90.9082L211.806 96.0266H216.925L214.365 90.9082Z" fill="#6C98E3"/>
<path d="M204.387 80.9175H199.268L201.828 86.036L204.387 80.9175Z" fill="#6C98E3"/>
<path d="M201.828 91.5705L204.387 86.4537H199.268L201.828 91.5705Z" fill="#6C98E3"/>
<path d="M94.2733 159.337H89.1549L91.7141 164.454L94.2733 159.337Z" fill="#6C98E3"/>
<path d="M91.7141 169.989L94.2733 164.871H89.1549L91.7141 169.989Z" fill="#6C98E3"/>
<path d="M143.622 111.966H138.504L141.063 117.084L143.622 111.966Z" fill="#6C98E3"/>
<path d="M141.063 122.62L143.622 117.502H138.504L141.063 122.62Z" fill="#6C98E3"/>
<path d="M278.131 132.569H273.013L275.572 137.688L278.131 132.569Z" fill="#6C98E3"/>
<path d="M275.572 143.227L278.131 138.108H273.013L275.572 143.227Z" fill="#6C98E3"/>
<path d="M331.038 124.813C331.038 120.566 327.595 117.125 323.348 117.125C322.172 117.125 321.089 117.435 320.092 117.906C318.636 114.92 315.866 112.851 312.531 112.144C312.676 111.374 312.994 110.664 312.994 109.85C312.994 102.783 307.266 97.0559 300.198 97.0559C296.853 97.0559 293.863 98.4106 291.585 100.513C290.725 88.3097 280.659 78.6437 268.237 78.6437C257.441 78.6437 248.44 85.9639 245.68 95.8798C244.643 95.6712 243.572 95.5573 242.473 95.5573C234.984 95.5573 228.746 100.682 226.922 107.596C225.237 106.921 223.417 106.501 221.49 106.501C213.386 106.501 206.817 113.07 206.817 121.176C206.817 123.922 207.775 126.347 209.087 128.546H329.935C330.573 127.423 331.038 126.195 331.038 124.813Z" fill="white"/>
<path d="M331.039 129.02H220.102C219.841 129.02 219.628 128.808 219.628 128.545C219.628 128.285 219.841 128.071 220.102 128.071H331.039C331.302 128.071 331.513 128.285 331.513 128.545C331.513 128.808 331.302 129.02 331.039 129.02Z" fill="#002DAA"/>
<path d="M309.469 113.989C306.028 116.42 301.225 115.595 298.794 112.155C298.293 111.445 297.964 110.671 297.734 109.879C297.775 111.335 298.224 112.792 299.12 114.061C301.551 117.503 306.355 118.328 309.796 115.896C312.526 113.966 313.577 110.549 312.69 107.496C312.762 109.98 311.638 112.455 309.469 113.989Z" fill="#D1E1F2"/>
<path d="M253.925 109.49C248.455 108.992 244.385 104.111 244.881 98.64C244.984 97.513 245.313 96.4665 245.754 95.4849C244.565 96.9645 243.776 98.7902 243.593 100.81C243.097 106.28 247.165 111.163 252.636 111.661C256.979 112.054 260.912 109.55 262.614 105.772C260.584 108.295 257.375 109.803 253.925 109.49Z" fill="#D1E1F2"/>
<path d="M226.923 108.071C226.884 108.071 226.843 108.066 226.803 108.055C226.549 107.989 226.398 107.729 226.465 107.477C228.389 100.18 234.972 95.0836 242.474 95.0836C243.57 95.0836 244.681 95.1959 245.775 95.4156C246.033 95.4678 246.199 95.7175 246.147 95.9736C246.096 96.2313 245.845 96.3956 245.589 96.3451C244.555 96.138 243.508 96.0321 242.474 96.0321C235.402 96.0321 229.196 100.837 227.382 107.718C227.326 107.93 227.133 108.071 226.923 108.071Z" fill="#002DAA"/>
<path d="M329.938 129.02C329.859 129.02 329.778 129 329.704 128.958C329.476 128.829 329.397 128.54 329.527 128.312C330.237 127.065 330.567 125.953 330.567 124.814C330.567 120.835 327.33 117.599 323.351 117.599C322.344 117.599 321.345 117.84 320.297 118.336L319.873 118.535L319.668 118.115C318.296 115.298 315.659 113.29 312.436 112.609L311.982 112.513L312.068 112.057C312.123 111.765 312.199 111.487 312.273 111.216C312.401 110.752 312.523 110.312 312.523 109.851C312.523 103.058 306.995 97.5304 300.201 97.5304C297.182 97.5304 294.237 98.7143 291.909 100.861L291.183 101.531L291.114 100.546C290.27 88.5313 280.221 79.1182 268.241 79.1182C257.996 79.1182 248.908 86.0637 246.14 96.0065C246.071 96.2594 245.808 96.4065 245.557 96.3369C245.304 96.2674 245.157 96.005 245.227 95.7536C246.607 90.7949 249.601 86.3261 253.657 83.1693C257.86 79.8986 262.902 78.1697 268.241 78.1697C274.341 78.1697 280.143 80.4737 284.576 84.6572C288.75 88.5977 291.357 93.8567 291.977 99.5505C294.357 97.6299 297.245 96.5819 300.201 96.5819C307.518 96.5819 313.471 102.535 313.471 109.851C313.471 110.44 313.328 110.963 313.189 111.468C313.159 111.577 313.128 111.684 313.102 111.79C316.244 112.584 318.833 114.56 320.311 117.291C321.34 116.86 322.338 116.651 323.351 116.651C327.853 116.651 331.516 120.312 331.516 124.814C331.516 126.105 331.135 127.403 330.351 128.78C330.264 128.933 330.104 129.02 329.938 129.02Z" fill="#002DAA"/>
<path d="M204.09 105.579C204.09 101.667 200.919 98.4962 197.009 98.4962C195.924 98.4962 194.927 98.7823 194.009 99.217C192.668 96.4666 190.117 94.5602 187.044 93.9105C187.178 93.1992 187.471 92.5463 187.471 91.7971C187.471 85.2876 182.194 80.0121 175.685 80.0121C172.604 80.0121 169.85 81.2596 167.751 83.1962C166.959 71.9555 157.688 63.0528 146.245 63.0528C136.302 63.0528 128.011 69.7951 125.47 78.9287C124.515 78.7365 123.527 78.6313 122.515 78.6313C115.617 78.6313 109.871 83.3512 108.191 89.72C106.638 89.0988 104.963 88.7115 103.189 88.7115C95.7235 88.7115 89.6725 94.7625 89.6725 102.23C89.6725 104.757 90.5545 106.991 91.7638 109.016H203.076C203.664 107.984 204.09 106.852 204.09 105.579Z" fill="white"/>
<path d="M195.24 109.489H91.7168C91.456 109.489 91.2426 109.277 91.2426 109.015C91.2426 108.752 91.456 108.54 91.7168 108.54H195.24C195.503 108.54 195.715 108.752 195.715 109.015C195.715 109.277 195.503 109.489 195.24 109.489Z" fill="#002DAA"/>
<path d="M184.222 95.6072C181.055 97.8471 176.63 97.0867 174.39 93.9174C173.929 93.2645 173.625 92.5516 173.413 91.8229C173.451 93.1618 173.864 94.5038 174.691 95.6752C176.93 98.8429 181.355 99.6048 184.524 97.365C187.039 95.5882 188.007 92.4394 187.191 89.6289C187.256 91.9146 186.22 94.1956 184.222 95.6072Z" fill="#D1E1F2"/>
<path d="M133.06 91.4664C128.022 91.0095 124.274 86.5124 124.731 81.4741C124.826 80.4352 125.128 79.4716 125.534 78.5681C124.439 79.9304 123.713 81.6116 123.544 83.4721C123.086 88.512 126.835 93.0076 131.873 93.466C135.874 93.8296 139.497 91.5217 141.063 88.0425C139.195 90.3679 136.239 91.7556 133.06 91.4664Z" fill="#D1E1F2"/>
<path d="M108.514 90.3612L108.016 90.162C106.399 89.5155 104.776 89.1867 103.19 89.1867C102.928 89.1867 102.716 88.9749 102.716 88.7125C102.716 88.4501 102.928 88.2383 103.19 88.2383C104.735 88.2383 106.309 88.526 107.877 89.0934C109.819 82.6287 115.764 78.1581 122.517 78.1581C123.528 78.1581 124.552 78.2613 125.564 78.4648C125.82 78.5165 125.988 78.7665 125.936 79.0232C125.883 79.2801 125.634 79.4464 125.378 79.3946C124.428 79.2034 123.465 79.1065 122.517 79.1065C116.02 79.1065 110.318 83.5215 108.65 89.8427L108.514 90.3612Z" fill="#002DAA"/>
<path d="M203.706 103.749C203.51 103.749 203.327 103.626 203.259 103.428C202.342 100.763 199.83 98.9707 197.009 98.9707C196.085 98.9707 195.17 99.192 194.211 99.6457L193.787 99.8464L193.581 99.4244C192.322 96.8414 189.903 94.9999 186.946 94.3739L186.492 94.2775L186.577 93.8223C186.628 93.5519 186.699 93.2943 186.769 93.0461C186.886 92.6211 186.996 92.2178 186.996 91.7973C186.996 85.5598 181.922 80.4866 175.684 80.4866C172.913 80.4866 170.209 81.5727 168.072 83.545L167.346 84.2139L167.277 83.2298C166.5 72.1816 157.261 63.5273 146.245 63.5273C136.825 63.5273 128.471 69.9129 125.926 79.056C125.855 79.3085 125.594 79.4561 125.341 79.3858C125.09 79.3156 124.941 79.0541 125.013 78.8018C126.285 74.2272 129.048 70.1039 132.79 67.1915C136.669 64.1738 141.321 62.5788 146.245 62.5788C151.874 62.5788 157.228 64.7046 161.317 68.5646C165.152 72.1841 167.553 77.0102 168.138 82.238C170.327 80.4907 172.975 79.5381 175.684 79.5381C182.445 79.5381 187.945 85.0381 187.945 91.7973C187.945 92.346 187.812 92.8296 187.682 93.2975C187.658 93.386 187.635 93.4713 187.613 93.5551C190.49 94.2933 192.861 96.1033 194.225 98.6024C195.165 98.2135 196.079 98.0223 197.009 98.0223C200.235 98.0223 203.107 100.071 204.155 103.12C204.24 103.368 204.109 103.637 203.861 103.722C203.81 103.74 203.758 103.749 203.706 103.749Z" fill="#002DAA"/>
<path d="M118.627 197.556C118.627 195.185 116.707 193.264 114.336 193.264C113.68 193.264 113.074 193.436 112.518 193.7C111.705 192.034 110.159 190.879 108.297 190.483C108.38 190.054 108.557 189.658 108.557 189.203C108.557 185.259 105.359 182.063 101.415 182.063C99.548 182.063 97.8788 182.819 96.6063 183.991C96.1273 177.18 90.5078 171.785 83.5747 171.785C77.549 171.785 72.5239 175.871 70.9842 181.405C70.4057 181.288 69.8066 181.225 69.1933 181.225C65.0138 181.225 61.5315 184.086 60.5135 187.945C59.5729 187.569 58.5565 187.333 57.4816 187.333C52.9576 187.333 49.2908 191 49.2908 195.526C49.2908 197.058 49.8257 198.412 50.558 199.639H118.012C118.37 199.013 118.627 198.327 118.627 197.556Z" fill="white"/>
<path d="M118.631 200.112H50.5326C50.2707 200.112 50.0584 199.899 50.0584 199.638C50.0584 199.375 50.2707 199.164 50.5326 199.164H118.631C118.893 199.164 119.105 199.375 119.105 199.638C119.105 199.899 118.893 200.112 118.631 200.112Z" fill="#002DAA"/>
<path d="M106.59 191.512C104.671 192.869 101.99 192.409 100.632 190.488C100.353 190.091 100.169 189.66 100.041 189.217C100.063 190.03 100.313 190.844 100.816 191.552C102.172 193.472 104.853 193.934 106.774 192.576C108.297 191.5 108.884 189.592 108.389 187.888C108.429 189.274 107.801 190.656 106.59 191.512Z" fill="#D1E1F2"/>
<path d="M75.5852 188.999C72.5313 188.723 70.2597 185.998 70.538 182.944C70.5949 182.314 70.7782 181.731 71.0248 181.183C70.3609 182.009 69.9199 183.027 69.8187 184.156C69.5405 187.208 71.812 189.934 74.866 190.212C77.2892 190.431 79.4849 189.034 80.4349 186.925C79.3015 188.334 77.5105 189.175 75.5852 188.999Z" fill="#D1E1F2"/>
<path d="M60.8363 188.583L60.3383 188.384C59.3788 188 58.4192 187.806 57.482 187.806C57.2196 187.806 57.0078 187.594 57.0078 187.332C57.0078 187.071 57.2196 186.857 57.482 186.857C58.3797 186.857 59.2917 187.014 60.2008 187.324C61.4591 183.427 65.0853 180.749 69.1936 180.749C69.8196 180.749 70.4534 180.814 71.0778 180.939C71.3355 180.991 71.5015 181.241 71.4493 181.497C71.3971 181.755 71.1474 181.921 70.8913 181.869C70.3286 181.756 69.7563 181.698 69.1936 181.698C65.3414 181.698 61.9602 184.315 60.9722 188.065L60.8363 188.583Z" fill="#002DAA"/>
<path d="M118.014 200.111C117.935 200.111 117.854 200.09 117.78 200.049C117.552 199.919 117.473 199.629 117.601 199.401C117.979 198.739 118.155 198.151 118.155 197.553C118.155 195.448 116.443 193.736 114.337 193.736C113.806 193.736 113.278 193.864 112.722 194.126L112.298 194.327L112.092 193.905C111.356 192.392 109.936 191.312 108.201 190.946L107.747 190.849L107.834 190.394C107.866 190.223 107.91 190.064 107.953 189.909C108.019 189.662 108.084 189.431 108.084 189.2C108.084 185.525 105.093 182.535 101.416 182.535C99.7833 182.535 98.1899 183.175 96.9285 184.338L96.203 185.007L96.135 184.022C95.6703 177.424 90.1535 172.257 83.5761 172.257C77.9519 172.257 72.9615 176.069 71.4424 181.531C71.3729 181.782 71.1105 181.929 70.8576 181.86C70.6062 181.79 70.4576 181.528 70.5288 181.276C72.1617 175.407 77.5267 171.308 83.5761 171.308C87.0347 171.308 90.3242 172.614 92.8376 174.987C95.1138 177.135 96.5681 179.975 96.9886 183.062C98.2943 182.105 99.8371 181.586 101.416 181.586C105.615 181.586 109.032 185.002 109.032 189.2C109.032 189.548 108.948 189.86 108.873 190.135C110.529 190.607 111.901 191.659 112.733 193.091C113.272 192.887 113.801 192.787 114.337 192.787C116.966 192.787 119.103 194.924 119.103 197.553C119.103 198.312 118.882 199.069 118.426 199.87C118.339 200.024 118.178 200.111 118.014 200.111Z" fill="#002DAA"/>
<path d="M358.259 192.26C358.259 189.977 356.408 188.126 354.125 188.126C353.493 188.126 352.911 188.294 352.375 188.547C351.593 186.942 350.104 185.829 348.311 185.45C348.389 185.036 348.56 184.655 348.56 184.217C348.56 180.418 345.482 177.341 341.683 177.341C339.886 177.341 338.278 178.068 337.053 179.198C336.592 172.64 331.181 167.444 324.506 167.444C318.703 167.444 313.866 171.378 312.381 176.709C311.825 176.596 311.248 176.535 310.658 176.535C306.632 176.535 303.28 179.29 302.3 183.006C301.394 182.643 300.415 182.417 299.381 182.417C295.025 182.417 291.494 185.948 291.494 190.304C291.494 191.781 292.009 193.083 292.714 194.266H357.666C358.009 193.662 358.259 193.003 358.259 192.26Z" fill="white"/>
<path d="M358.255 194.739H292.683C292.421 194.739 292.209 194.527 292.209 194.264C292.209 194.004 292.421 193.79 292.683 193.79H358.255C358.517 193.79 358.729 194.004 358.729 194.264C358.729 194.527 358.517 194.739 358.255 194.739Z" fill="#002DAA"/>
<path d="M346.661 186.442C344.813 187.749 342.232 187.305 340.925 185.456C340.656 185.075 340.479 184.659 340.354 184.234C340.376 185.016 340.618 185.799 341.1 186.482C342.408 188.331 344.989 188.775 346.838 187.468C348.305 186.431 348.87 184.593 348.394 182.953C348.432 184.287 347.828 185.618 346.661 186.442Z" fill="#D1E1F2"/>
<path d="M316.812 184.023C313.872 183.756 311.684 181.132 311.951 178.192C312.007 177.586 312.182 177.023 312.419 176.495C311.781 177.291 311.357 178.272 311.259 179.358C310.992 182.298 313.178 184.922 316.118 185.189C318.453 185.401 320.566 184.054 321.481 182.025C320.391 183.381 318.666 184.19 316.812 184.023Z" fill="#D1E1F2"/>
<path d="M302.623 183.647L302.125 183.447C301.205 183.079 300.282 182.893 299.382 182.893C299.12 182.893 298.908 182.681 298.908 182.418C298.908 182.156 299.12 181.944 299.382 181.944C300.242 181.944 301.116 182.093 301.989 182.387C303.208 178.639 306.701 176.062 310.659 176.062C311.263 176.062 311.873 176.124 312.477 176.246C312.733 176.298 312.899 176.547 312.847 176.804C312.796 177.061 312.545 177.226 312.289 177.175C311.748 177.066 311.2 177.011 310.659 177.011C306.957 177.011 303.709 179.527 302.759 183.128L302.623 183.647Z" fill="#002DAA"/>
<path d="M357.664 194.74C357.584 194.74 357.505 194.72 357.43 194.677C357.203 194.549 357.122 194.258 357.252 194.03C357.614 193.395 357.783 192.832 357.783 192.26C357.783 190.243 356.14 188.601 354.123 188.601C353.616 188.601 353.109 188.724 352.576 188.975L352.152 189.176L351.947 188.756C351.239 187.303 349.878 186.267 348.212 185.915L347.758 185.819L347.843 185.363C347.875 185.197 347.918 185.042 347.959 184.894C348.023 184.658 348.084 184.435 348.084 184.217C348.084 180.688 345.211 177.815 341.682 177.815C340.115 177.815 338.583 178.43 337.372 179.548L336.647 180.216L336.579 179.232C336.132 172.888 330.828 167.918 324.504 167.918C319.095 167.918 314.299 171.586 312.836 176.835C312.767 177.088 312.506 177.235 312.253 177.166C312 177.096 311.853 176.834 311.923 176.582C313.499 170.923 318.671 166.97 324.504 166.97C327.839 166.97 331.01 168.23 333.433 170.517C335.621 172.582 337.022 175.31 337.431 178.275C338.688 177.362 340.167 176.867 341.682 176.867C345.735 176.867 349.032 180.164 349.032 184.217C349.032 184.548 348.956 184.843 348.883 185.106C350.47 185.562 351.786 186.569 352.587 187.941C353.104 187.747 353.61 187.652 354.123 187.652C356.664 187.652 358.731 189.72 358.731 192.26C358.731 192.993 358.516 193.727 358.077 194.5C357.988 194.653 357.829 194.74 357.664 194.74Z" fill="#002DAA"/>
<path d="M220.578 174.5L222.835 174.41L226.813 178.29L232.142 174.142L228.763 163.558L242.597 161.474L247.456 178.755C248.191 181.365 246.495 184.035 243.821 184.48L227.373 186.938L222.441 188.54L217.348 186.97L212.759 184.484L212.34 180.279C212.283 179.726 212.718 179.245 213.275 179.245H218.124L221.264 177.748H220.578V174.5Z" fill="white"/>
<path d="M236.436 186.058C236.206 186.058 236.003 185.889 235.969 185.654C235.929 185.394 236.108 185.154 236.367 185.115L243.747 184.013C244.887 183.822 245.896 183.151 246.517 182.176C247.136 181.199 247.313 179.998 247 178.883L241.419 160.604C241.341 160.354 241.484 160.089 241.733 160.013C241.985 159.935 242.249 160.077 242.326 160.327L247.909 178.618C248.298 180.001 248.082 181.479 247.317 182.683C246.706 183.646 245.788 184.365 244.727 184.737L244.74 184.824L236.508 186.054C236.484 186.057 236.46 186.058 236.436 186.058Z" fill="#002DAA"/>
<path d="M193.864 174.5L191.606 174.41L187.628 178.29L182.299 174.142L185.679 163.558L171.844 161.474L166.985 178.755C166.25 181.365 167.946 184.035 170.621 184.48L187.068 186.938L192 188.54L197.093 186.97L201.682 184.484L202.101 180.279C202.158 179.726 201.723 179.245 201.167 179.245H196.317L193.178 177.748H193.864V174.5Z" fill="white"/>
<path d="M178.855 186.185C178.832 186.185 178.808 186.183 178.784 186.18L170.552 184.95C169.136 184.715 167.89 183.89 167.125 182.683C166.36 181.479 166.143 180.001 166.529 178.627L172.115 160.327C172.193 160.077 172.457 159.935 172.708 160.013C172.958 160.089 173.1 160.354 173.023 160.604L167.439 178.894C167.128 179.998 167.305 181.199 167.925 182.176C168.546 183.153 169.558 183.823 170.699 184.013L178.925 185.243C179.183 185.281 179.361 185.522 179.323 185.782C179.289 186.016 179.086 186.185 178.855 186.185Z" fill="#002DAA"/>
<path d="M192.176 174.431L191.607 174.409L187.628 178.289L182.3 174.142L185.679 163.557L180.33 162.751C178.955 165.689 178.536 169.074 179.201 172.251C179.421 173.305 179.625 174.679 178.689 175.209C178.281 175.441 177.771 175.413 177.344 175.607C176.917 175.801 176.634 176.454 177.023 176.717C177.146 176.799 177.301 176.813 177.448 176.834C180.516 177.268 181.896 181.203 184.813 182.251C187.212 183.112 189.998 181.612 191.22 179.375C192.04 177.877 192.28 176.152 192.176 174.431Z" fill="#B3CDFA"/>
<path d="M222.14 174.431L222.709 174.409L226.689 178.289L232.016 174.142L228.637 163.557L233.986 162.751C235.361 165.689 235.781 169.074 235.116 172.251C234.895 173.305 234.691 174.679 235.627 175.209C236.036 175.441 236.545 175.413 236.972 175.607C237.399 175.801 237.682 176.454 237.293 176.717C237.169 176.799 237.014 176.813 236.867 176.834C233.799 177.268 232.419 181.203 229.503 182.251C227.103 183.112 224.318 181.612 223.096 179.375C222.276 177.877 222.035 176.152 222.14 174.431Z" fill="#B3CDFA"/>
<path d="M202.758 128.818L190.032 132.103L187.463 158.56L190.999 193.309L224.819 194.023L227.342 159.651L225.143 132.288L216.865 128.818H202.758Z" fill="#ACB4C3"/>
<path d="M202.758 128.818L190.032 132.103L187.463 158.56L190.999 193.309L224.819 194.023L227.342 159.651L225.143 132.288L216.865 128.818H202.758Z" fill="#FFC132"/>
<path d="M177.582 202.045L184.886 208.591C187.006 210.491 189.755 211.542 192.602 211.542H220.696C223.284 211.542 225.797 210.673 227.833 209.076L238.936 200.365L237.563 189.178L213.945 191.048H198.074L177.583 188.048L175.332 189.633L177.582 202.045Z" fill="#002DAA"/>
<path d="M242.06 189.083H238.241C237.994 189.083 237.755 189.118 237.528 189.181L213.946 191.048H198.076L179.981 190.193C179.589 188.909 178.394 187.992 176.998 187.992H173.568C167.293 187.992 162.927 193.199 162.484 199.459C162.204 203.411 162.462 207.669 163.009 211.849L180.209 211.784H236.581L252.492 211.849C252.783 207.957 253.019 204.075 253.142 200.55C253.362 194.279 248.335 189.083 242.06 189.083Z" fill="#262626"/>
<path d="M238.565 211.793L236.584 211.786H180.21L178.176 211.793C178.304 210.216 178.401 208.629 178.451 207.056H199.027C201.489 207.056 203.928 207.541 206.201 208.483L208.746 209.538L210.059 208.991C212.084 208.148 214.247 207.685 216.439 207.625L237.899 207.043C238.067 208.615 238.294 210.206 238.565 211.793Z" fill="#002999"/>
<path d="M221.373 140.939L211.696 128.818L227.002 132.77C230.748 133.736 233.767 136.502 235.057 140.149L242.741 161.228L228.583 163.556L221.373 140.939Z" fill="#FFC132"/>
<path d="M192.172 191.784C192.464 191.251 192.466 190.612 192.456 190.005C192.314 181.321 191.516 172.673 193.678 164.126C193.914 163.195 194.173 162.194 193.828 161.298C193.379 160.131 192.096 159.57 191.01 158.949C189.209 157.918 187.58 156.192 187.545 154.118C186.699 157.156 187.67 160.631 187.989 163.77C188.601 169.786 189.213 175.802 189.826 181.82C190.194 185.448 190.564 189.076 190.932 192.704C191.451 192.557 191.913 192.253 192.172 191.784Z" fill="#BC8300"/>
<path d="M221.86 161.452C221.272 161.89 220.632 162.255 219.983 162.597C219.624 162.787 219.241 162.986 219.028 163.332C218.546 164.111 219.158 165.094 219.772 165.773C220.705 166.805 221.714 167.767 222.785 168.654C225.12 170.584 224.668 174.07 224.921 176.846C225.023 177.984 225.188 179.22 225.836 180.118C225.567 179.745 225.999 177.9 226.031 177.464C226.255 174.399 226.617 171.345 226.856 168.28C227.083 165.373 226.979 162.463 227.399 159.581C227.58 158.343 227.67 157.037 227.183 155.885C226.843 155.081 226.456 154.451 225.917 155.4C225.537 156.068 225.302 156.843 224.951 157.531C224.254 158.896 223.391 160.202 222.199 161.187C222.088 161.279 221.976 161.366 221.86 161.452Z" fill="#BC8300"/>
<path d="M231.77 202.178H184.186C182.7 202.178 181.347 201.319 180.716 199.974L179.537 197.466H236.418L235.24 199.974C234.608 201.319 233.256 202.178 231.77 202.178Z" fill="#C2D7FB"/>
<path d="M234.412 199.78H181.54C181.361 199.78 181.217 199.634 181.217 199.456V165.625C181.217 165.446 181.361 165.301 181.54 165.301H234.412C234.591 165.301 234.736 165.446 234.736 165.625V199.456C234.736 199.634 234.591 199.78 234.412 199.78Z" fill="white"/>
<path d="M234.739 196.769C234.477 196.769 234.265 196.557 234.265 196.295V165.775H181.695V196.295C181.695 196.557 181.481 196.769 181.221 196.769C180.958 196.769 180.746 196.557 180.746 196.295V165.625C180.746 165.186 181.104 164.827 181.543 164.827H234.415C234.855 164.827 235.214 165.186 235.214 165.625V196.295C235.214 196.557 235.002 196.769 234.739 196.769Z" fill="#002DAA"/>
<path d="M211.783 183.645C211.783 185.746 210.08 187.449 207.98 187.449C205.879 187.449 204.176 185.746 204.176 183.645C204.176 181.545 205.879 179.842 207.98 179.842C210.08 179.842 211.783 181.545 211.783 183.645Z" fill="#EEF4FE"/>
<path d="M219.559 111.736C219.368 109.692 218.684 107.615 217.489 106.129C216.264 104.607 214.37 103.73 212.44 103.423C210.511 103.115 208.537 103.33 206.615 103.677C203.779 104.19 200.897 105.045 198.719 106.932C198.088 107.477 197.519 108.114 197.168 108.872C196.579 110.149 196.664 111.622 196.762 113.026C197.036 116.927 197.413 121.118 198.657 124.851C199.276 126.707 200.26 128.482 201.745 129.755C202.922 130.762 204.601 131.558 206.186 131.46C206.784 131.424 207.217 131.131 207.78 130.986C208.692 130.752 209.761 130.83 210.698 130.777C211.962 130.705 213.309 130.604 214.318 129.84C215.209 129.165 215.682 128.089 216.09 127.048C217.64 123.095 218.775 118.979 219.471 114.788C219.629 113.837 219.659 112.79 219.559 111.736Z" fill="#002DAA"/>
<path d="M193.076 140.939L202.753 128.818L187.447 132.77C183.701 133.736 180.682 136.502 179.39 140.149L171.709 161.228C173.519 164.325 182.808 165.43 185.866 163.557L193.076 140.939Z" fill="#FFC132"/>
<path d="M208.095 142.964C204.633 142.964 201.827 140.158 201.827 136.694V125.821H214.364V136.694C214.364 140.158 211.556 142.964 208.095 142.964Z" fill="white"/>
<path d="M208.498 129.087L201.827 126.254V136.695C201.827 140.158 204.633 142.964 208.095 142.964C208.153 142.964 208.21 142.956 208.267 142.954C208.238 142.946 208.208 142.942 208.18 142.934C204.737 141.845 203.408 137.627 205.257 134.524L208.498 129.087Z" fill="#B3CDFA"/>
<path d="M212.556 134.917L212.33 135.045C211.172 135.708 209.861 136.055 208.527 136.055C207.13 136.055 205.759 135.674 204.564 134.952C201.779 133.27 200.077 130.254 200.077 127.001V111.701H217.235V126.852C217.235 130.186 215.449 133.264 212.556 134.917Z" fill="white"/>
<path d="M200.079 118.836C199.759 118.816 199.438 118.879 199.171 119.051C198.716 119.344 198.482 119.886 198.381 120.417C198.082 121.961 198.677 124.146 199.557 125.439C199.601 125.505 199.805 125.659 200.079 125.833V127.021C200.079 130.274 201.781 133.29 204.566 134.972C205.546 135.565 206.647 135.924 207.78 136.035C207.804 136.012 207.831 135.993 207.853 135.971C209.013 134.854 209.275 133.113 209.362 131.506C209.421 130.428 209.438 129.309 209.906 128.333C210.009 128.118 210.134 127.913 210.206 127.685C210.27 127.486 210.292 127.276 210.297 127.067C210.344 124.909 208.627 122.946 208.902 120.806C208.999 120.057 209.339 119.355 209.445 118.607C209.617 117.409 209.187 116.214 208.543 115.224C207.859 114.171 207.445 112.972 206.968 111.792C206.958 111.769 206.947 111.745 206.937 111.721H200.079V118.836Z" fill="#B3CDFA"/>
<path d="M214.481 126.417C214.685 127.026 216.893 125.657 217.056 125.418C217.935 124.125 218.531 121.941 218.232 120.396C218.129 119.865 217.895 119.323 217.44 119.03C217.002 118.749 216.422 118.754 215.94 118.951C215.459 119.151 215.066 119.519 214.743 119.928C213.792 121.138 213.466 122.312 213.76 123.787C213.937 124.675 214.195 125.557 214.481 126.417Z" fill="white"/>
<path d="M208.526 136.53C207.042 136.53 205.588 136.125 204.318 135.358C204.094 135.222 204.023 134.932 204.157 134.707C204.293 134.483 204.584 134.412 204.808 134.546C205.931 135.224 207.216 135.581 208.526 135.581C209.775 135.581 211.009 135.254 212.094 134.634L212.32 134.505C215.059 132.94 216.76 130.008 216.76 126.853V125.003L216.827 124.892C217.609 123.574 218.004 121.721 217.766 120.487C217.698 120.131 217.539 119.659 217.184 119.429C217.149 119.407 217.106 119.387 217.053 119.363L216.76 119.243V111.701C216.76 111.439 216.972 111.227 217.234 111.227C217.497 111.227 217.709 111.439 217.709 111.701V118.641C218.207 118.965 218.55 119.542 218.697 120.307C218.973 121.733 218.567 123.751 217.709 125.262V126.853C217.709 130.348 215.824 133.596 212.789 135.328L212.565 135.458C211.337 136.16 209.939 136.53 208.526 136.53Z" fill="#002DAA"/>
<path d="M216.695 104.798C215.665 105.309 214.583 105.71 213.47 105.993C211.317 106.542 209.079 106.646 206.878 106.953C204.676 107.259 202.441 107.798 200.631 109.088C196.725 111.875 197.689 116.622 199.226 120.519C199.472 121.148 199.73 121.791 200.182 122.291C200.457 122.596 200.939 122.842 201.259 122.583C201.507 122.381 201.489 122.004 201.464 121.685C201.355 120.311 201.401 118.99 202.076 117.801C202.177 117.623 203.322 115.394 203.023 115.274C207.431 117.047 212.406 117.382 217.012 116.216C220.243 115.395 223.457 113.216 223.555 109.548C223.618 107.12 222.12 104.722 219.908 103.717C219.69 103.617 219.457 103.529 219.217 103.53C218.844 103.535 218.511 103.753 218.196 103.954C217.711 104.261 217.21 104.544 216.695 104.798Z" fill="#002DAA"/>
<path d="M202.13 126.417C201.927 127.026 199.718 125.657 199.557 125.418C198.677 124.125 198.082 121.941 198.381 120.396C198.482 119.865 198.716 119.323 199.171 119.03C199.609 118.749 200.189 118.754 200.671 118.951C201.154 119.151 201.546 119.519 201.868 119.928C202.82 121.138 203.145 122.312 202.851 123.787C202.676 124.675 202.417 125.557 202.13 126.417Z" fill="#B3CDFA"/>
<path d="M208.092 143.436C204.374 143.436 201.35 140.411 201.35 136.693V132.831C201.35 132.569 201.562 132.357 201.824 132.357C202.085 132.357 202.299 132.569 202.299 132.831V136.693C202.299 139.889 204.897 142.488 208.092 142.488C211.288 142.488 213.887 139.889 213.887 136.693V133.754C213.887 133.492 214.099 133.28 214.361 133.28C214.624 133.28 214.835 133.492 214.835 133.754V136.693C214.835 140.411 211.811 143.436 208.092 143.436Z" fill="#002DAA"/>
<path d="M380.526 212.321H0.474219C0.212292 212.321 0 212.11 0 211.847C0 211.585 0.212292 211.373 0.474219 211.373H380.526C380.788 211.373 381 211.585 381 211.847C381 212.11 380.788 212.321 380.526 212.321Z" fill="#002DAA"/>
<path d="M204.557 49.3135C205.045 46.7148 207.737 45.2471 210.159 46.1795C211.997 46.8882 213.116 48.877 212.753 50.8136C212.263 53.4125 209.571 54.8802 207.151 53.9475C205.312 53.2392 204.191 51.25 204.557 49.3135ZM216.256 52.3722L218.56 52.3701C219.027 52.3697 219.404 51.9914 219.404 51.5249L219.403 48.5849C219.401 48.1184 219.023 47.7405 218.557 47.741L216.753 47.7422C216.455 47.7427 216.197 47.5497 216.093 47.2702C216.028 47.1017 215.96 46.9356 215.886 46.7717C215.761 46.4999 215.805 46.1814 216.017 45.9698L217.292 44.6935C217.621 44.3633 217.621 43.8283 217.292 43.4986L215.212 41.4209C214.882 41.0912 214.348 41.0915 214.017 41.4214L212.732 42.7073C212.53 42.9098 212.226 42.9675 211.964 42.8548C211.779 42.7764 211.581 42.697 211.411 42.6305C211.143 42.5261 210.97 42.2685 210.97 41.9814V40.1593C210.97 39.6928 210.59 39.3146 210.124 39.3146H207.184C206.717 39.3146 206.34 39.6928 206.34 40.1593V41.9637C206.34 42.2622 206.147 42.5181 205.867 42.6234C205.69 42.6897 205.516 42.7626 205.345 42.8413C205.073 42.9665 204.756 42.9224 204.542 42.7117L203.264 41.4389C202.932 41.11 202.397 41.1115 202.068 41.4422L199.996 43.5271C199.667 43.8577 199.667 44.3928 199.999 44.7218L201.288 46.0039C201.492 46.2059 201.55 46.5097 201.438 46.7732C201.36 46.9564 201.281 47.1545 201.215 47.3256C201.111 47.5933 200.854 47.7683 200.567 47.7686L198.744 47.7732C198.278 47.7743 197.9 48.1537 197.902 48.6203L197.91 51.5597C197.91 52.0266 198.289 52.4038 198.755 52.4027L200.56 52.3981C200.859 52.3973 201.115 52.5902 201.221 52.8693C201.286 53.0375 201.354 53.2037 201.43 53.3671C201.555 53.639 201.51 53.9573 201.299 54.1692L200.025 55.448C199.696 55.7785 199.697 56.3134 200.028 56.6427L202.111 58.7172C202.442 59.0463 202.976 59.0454 203.306 58.7147L204.588 57.4261C204.79 57.2236 205.094 57.1654 205.358 57.2775C205.541 57.3556 205.739 57.4346 205.91 57.5009C206.178 57.6049 206.352 57.8622 206.352 58.1494L206.355 59.9715C206.357 60.4383 206.735 60.8161 207.203 60.8149L210.141 60.8104C210.608 60.8098 210.985 60.4306 210.985 59.9643L210.982 58.1599C210.982 57.8614 211.175 57.6044 211.453 57.4988C211.622 57.4354 211.788 57.3662 211.951 57.2914C212.223 57.1672 212.542 57.2114 212.754 57.4226L214.031 58.6972C214.362 59.0267 214.898 59.0261 215.226 58.6957L217.302 56.6145C217.632 56.2843 217.632 55.7493 217.3 55.4197L216.014 54.1357C215.811 53.9335 215.753 53.6295 215.865 53.3663C216.053 52.9267 216.246 52.4032 216.256 52.3722Z" fill="#3068B2"/>
<path d="M197.905 68.6868H219.408L230.16 50.0646L219.408 31.4425H197.905L187.153 50.0646L197.905 68.6868ZM219.855 78.3974H197.458C194.276 78.3974 191.311 76.6853 189.719 73.9291L178.521 54.533C176.929 51.7768 176.929 48.3525 178.521 45.5963L189.719 26.2001C191.311 23.444 194.276 21.7319 197.458 21.7319H219.855C223.037 21.7319 226.003 23.444 227.595 26.2L230.622 31.4425L238.793 45.5963C240.384 48.3525 240.384 51.7768 238.793 54.533L227.595 73.9291C226.003 76.6853 223.037 78.3974 219.855 78.3974Z" fill="#3068B2"/>
<path d="M230.622 31.4435H219.408L230.16 50.0656L226.514 56.3821L213.83 78.3985H219.856C223.038 78.3985 226.003 76.6864 227.595 73.9302L238.793 54.534C240.385 51.7779 240.385 48.3535 238.793 45.5974L230.622 31.4435Z" fill="#FFC132"/>
<path d="M219.408 68.6875H197.905L181.529 40.3875L178.521 45.597C176.929 48.3531 176.929 51.7774 178.521 54.5336L189.719 73.9298C191.311 76.6859 194.276 78.398 197.458 78.398H213.83L219.408 68.6875Z" fill="#90C4E9"/>
<path d="M183.129 48.5929H181.297L180.38 50.1797L181.297 51.7664H183.129L184.046 50.1797L183.129 48.5929Z" fill="white"/>
<path d="M196.341 25.5235H194.509L193.593 27.1102L194.509 28.697H196.341L197.257 27.1102L196.341 25.5235Z" fill="white"/>
<path d="M196.341 72.1567H194.509L193.593 73.7434L194.509 75.3302H196.341L197.257 73.7434L196.341 72.1567Z" fill="white"/>
<path d="M234.03 48.5929H235.862L236.778 50.1797L235.862 51.7664H234.03L233.114 50.1797L234.03 48.5929Z" fill="white"/>
<path d="M220.818 25.5235H222.65L223.567 27.1102L222.65 28.697H220.818L219.901 27.1102L220.818 25.5235Z" fill="white"/>
<path d="M220.818 72.1567H222.65L223.567 73.7434L222.65 75.3302H220.818L219.901 73.7434L220.818 72.1567Z" fill="white"/>
<path d="M146.95 113.526C146.689 113.526 146.476 113.314 146.476 113.051V111.155C146.476 110.894 146.689 110.68 146.95 110.68C147.212 110.68 147.424 110.894 147.424 111.155V113.051C147.424 113.314 147.212 113.526 146.95 113.526ZM146.95 118.584C146.689 118.584 146.476 118.372 146.476 118.11V116.213C146.476 115.952 146.689 115.739 146.95 115.739C147.212 115.739 147.424 115.952 147.424 116.213V118.11C147.424 118.372 147.212 118.584 146.95 118.584ZM146.95 123.642C146.689 123.642 146.476 123.431 146.476 123.168V121.271C146.476 121.01 146.689 120.797 146.95 120.797C147.212 120.797 147.424 121.01 147.424 121.271V123.168C147.424 123.431 147.212 123.642 146.95 123.642ZM146.95 128.701C146.689 128.701 146.476 128.489 146.476 128.226V126.33C146.476 126.069 146.689 125.855 146.95 125.855C147.212 125.855 147.424 126.069 147.424 126.33V128.226C147.424 128.489 147.212 128.701 146.95 128.701ZM146.95 133.759C146.689 133.759 146.476 133.547 146.476 133.285V131.388C146.476 131.127 146.689 130.914 146.95 130.914C147.212 130.914 147.424 131.127 147.424 131.388V133.285C147.424 133.547 147.212 133.759 146.95 133.759ZM146.95 138.817C146.689 138.817 146.476 138.606 146.476 138.343V136.446C146.476 136.185 146.689 135.972 146.95 135.972C147.212 135.972 147.424 136.185 147.424 136.446V138.343C147.424 138.606 147.212 138.817 146.95 138.817ZM108.437 143.488H108.431L106.534 143.466C106.273 143.465 106.063 143.25 106.066 142.987C106.069 142.728 106.281 142.518 106.54 142.518H106.545L108.442 142.54C108.704 142.543 108.914 142.758 108.911 143.021C108.908 143.28 108.696 143.488 108.437 143.488ZM113.495 143.547H113.489L111.592 143.525C111.331 143.522 111.121 143.307 111.124 143.046C111.127 142.785 111.339 142.576 111.599 142.576H111.603L113.5 142.598C113.763 142.602 113.973 142.817 113.97 143.077C113.966 143.338 113.755 143.547 113.495 143.547ZM118.554 143.605H118.547L116.651 143.583C116.388 143.58 116.179 143.365 116.183 143.103C116.184 142.843 116.396 142.635 116.657 142.635H116.662L118.558 142.657C118.821 142.66 119.03 142.874 119.026 143.136C119.025 143.397 118.813 143.605 118.554 143.605ZM123.61 143.662H123.606L121.709 143.64C121.446 143.639 121.236 143.424 121.239 143.161C121.243 142.9 121.454 142.692 121.714 142.692H121.72L123.617 142.714C123.878 142.717 124.088 142.932 124.085 143.194C124.082 143.454 123.87 143.662 123.61 143.662ZM128.669 143.721H128.664L126.767 143.699C126.505 143.695 126.295 143.481 126.298 143.22C126.301 142.957 126.513 142.742 126.778 142.75L128.675 142.772C128.936 142.776 129.146 142.99 129.143 143.251C129.14 143.512 128.928 143.721 128.669 143.721ZM133.727 143.779H133.721L131.826 143.757C131.563 143.754 131.353 143.539 131.356 143.277C131.359 143.017 131.571 142.809 131.83 142.809H131.835L133.732 142.831C133.994 142.834 134.205 143.047 134.201 143.31C134.198 143.571 133.986 143.779 133.727 143.779ZM138.785 143.836H138.779L136.882 143.816C136.621 143.812 136.411 143.597 136.414 143.335C136.418 143.076 136.629 142.867 136.889 142.867H136.893L138.79 142.888C139.053 142.891 139.263 143.106 139.26 143.368C139.257 143.628 139.045 143.836 138.785 143.836ZM146.95 143.876C146.689 143.876 146.476 143.664 146.476 143.401V141.505C146.476 141.244 146.689 141.03 146.95 141.03C147.212 141.03 147.424 141.244 147.424 141.505V143.401C147.424 143.664 147.212 143.876 146.95 143.876ZM143.842 143.895H143.837L141.941 143.873C141.678 143.869 141.47 143.654 141.471 143.394C141.474 143.131 141.689 142.916 141.952 142.924L143.849 142.946C144.111 142.949 144.32 143.164 144.316 143.425C144.315 143.686 144.103 143.895 143.842 143.895Z" fill="#B3CDFA"/>
<path d="M268.52 133.49C268.26 133.49 268.046 133.278 268.046 133.016V131.119C268.046 130.858 268.26 130.644 268.52 130.644C268.783 130.644 268.995 130.858 268.995 131.119V133.016C268.995 133.278 268.783 133.49 268.52 133.49ZM268.52 138.548C268.26 138.548 268.046 138.336 268.046 138.074V136.177C268.046 135.916 268.26 135.703 268.52 135.703C268.783 135.703 268.995 135.916 268.995 136.177V138.074C268.995 138.336 268.783 138.548 268.52 138.548ZM268.52 143.606C268.26 143.606 268.046 143.395 268.046 143.132V141.235C268.046 140.974 268.26 140.761 268.52 140.761C268.783 140.761 268.995 140.974 268.995 141.235V143.132C268.995 143.395 268.783 143.606 268.52 143.606ZM268.52 148.665C268.26 148.665 268.046 148.453 268.046 148.191V146.294C268.046 146.033 268.26 145.819 268.52 145.819C268.783 145.819 268.995 146.033 268.995 146.294V148.191C268.995 148.453 268.783 148.665 268.52 148.665ZM310.408 150.136C310.147 150.136 309.936 149.926 309.934 149.665C309.932 149.403 310.143 149.19 310.405 149.188L312.302 149.175H312.305C312.566 149.175 312.778 149.386 312.779 149.646C312.781 149.909 312.571 150.122 312.308 150.124L310.411 150.136H310.408ZM305.35 150.168C305.089 150.168 304.877 149.958 304.876 149.697C304.874 149.435 305.086 149.221 305.347 149.22L307.244 149.209H307.247C307.508 149.209 307.719 149.419 307.721 149.68C307.723 149.94 307.512 150.154 307.25 150.157L305.353 150.168H305.35ZM300.292 150.201C300.031 150.201 299.819 149.991 299.817 149.73C299.816 149.468 300.028 149.254 300.288 149.253L302.185 149.24H302.188C302.449 149.24 302.661 149.45 302.663 149.711C302.664 149.974 302.454 150.187 302.192 150.189L300.295 150.201H300.292ZM295.233 150.234C294.972 150.234 294.761 150.024 294.759 149.763C294.757 149.501 294.969 149.288 295.23 149.286L297.127 149.273H297.13C297.391 149.273 297.603 149.484 297.604 149.744C297.606 150.007 297.396 150.22 297.133 150.222L295.236 150.234H295.233ZM290.175 150.266C289.914 150.266 289.702 150.056 289.701 149.795C289.699 149.533 289.911 149.319 290.172 149.318L292.069 149.305H292.072C292.333 149.305 292.544 149.515 292.546 149.776C292.548 150.038 292.337 150.252 292.075 150.253L290.178 150.266H290.175ZM285.117 150.299C284.857 150.299 284.644 150.089 284.642 149.828C284.641 149.566 284.853 149.352 285.113 149.351L287.01 149.338H287.013C287.274 149.338 287.486 149.548 287.488 149.809C287.489 150.072 287.279 150.285 287.017 150.287L285.12 150.299H285.117ZM280.058 150.331C279.799 150.331 279.586 150.121 279.584 149.86C279.582 149.599 279.794 149.384 280.055 149.382L281.952 149.371H281.955C282.216 149.371 282.428 149.582 282.429 149.842C282.431 150.103 282.221 150.318 281.958 150.32L280.061 150.331H280.058ZM275 150.364C274.741 150.364 274.529 150.154 274.526 149.893C274.524 149.631 274.736 149.417 274.998 149.416L276.895 149.403H276.897C277.158 149.403 277.369 149.613 277.371 149.874C277.374 150.136 277.162 150.35 276.9 150.351L275.003 150.364H275ZM269.943 150.397C269.682 150.397 269.471 150.187 269.469 149.926C269.466 149.664 269.678 149.45 269.94 149.449L271.837 149.436H271.84C272.099 149.436 272.311 149.646 272.314 149.907C272.316 150.17 272.104 150.383 271.843 150.385L269.946 150.397H269.943Z" fill="#B3CDFA"/>
<path d="M151.779 143.93H149.882C149.621 143.93 149.408 143.718 149.408 143.456C149.408 143.195 149.621 142.982 149.882 142.982H151.779C152.041 142.982 152.253 143.195 152.253 143.456C152.253 143.718 152.041 143.93 151.779 143.93ZM156.837 143.93H154.94C154.679 143.93 154.466 143.718 154.466 143.456C154.466 143.195 154.679 142.982 154.94 142.982H156.837C157.099 142.982 157.311 143.195 157.311 143.456C157.311 143.718 157.099 143.93 156.837 143.93ZM161.895 143.93H159.998C159.738 143.93 159.524 143.718 159.524 143.456C159.524 143.195 159.738 142.982 159.998 142.982H161.895C162.158 142.982 162.37 143.195 162.37 143.456C162.37 143.718 162.158 143.93 161.895 143.93ZM166.954 143.93H165.057C164.796 143.93 164.583 143.718 164.583 143.456C164.583 143.195 164.796 142.982 165.057 142.982H166.954C167.216 142.982 167.428 143.195 167.428 143.456C167.428 143.718 167.216 143.93 166.954 143.93ZM172.012 143.93H170.115C169.854 143.93 169.641 143.718 169.641 143.456C169.641 143.195 169.854 142.982 170.115 142.982H172.012C172.274 142.982 172.486 143.195 172.486 143.456C172.486 143.718 172.274 143.93 172.012 143.93Z" fill="#B3CDFA"/>
<path d="M245.062 150.405H243.166C242.903 150.405 242.691 150.194 242.691 149.931C242.691 149.67 242.903 149.457 243.166 149.457H245.062C245.323 149.457 245.537 149.67 245.537 149.931C245.537 150.194 245.323 150.405 245.062 150.405ZM250.121 150.405H248.224C247.962 150.405 247.75 150.194 247.75 149.931C247.75 149.67 247.962 149.457 248.224 149.457H250.121C250.382 149.457 250.595 149.67 250.595 149.931C250.595 150.194 250.382 150.405 250.121 150.405ZM255.179 150.405H253.282C253.02 150.405 252.808 150.194 252.808 149.931C252.808 149.67 253.02 149.457 253.282 149.457H255.179C255.44 149.457 255.653 149.67 255.653 149.931C255.653 150.194 255.44 150.405 255.179 150.405ZM260.237 150.405H258.341C258.078 150.405 257.866 150.194 257.866 149.931C257.866 149.67 258.078 149.457 258.341 149.457H260.237C260.498 149.457 260.712 149.67 260.712 149.931C260.712 150.194 260.498 150.405 260.237 150.405ZM265.296 150.405H263.399C263.137 150.405 262.925 150.194 262.925 149.931C262.925 149.67 263.137 149.457 263.399 149.457H265.296C265.557 149.457 265.77 149.67 265.77 149.931C265.77 150.194 265.557 150.405 265.296 150.405Z" fill="#B3CDFA"/>
<path d="M101.342 177.647H99.4454C99.1846 177.647 98.9712 177.436 98.9712 177.173C98.9712 176.912 99.1846 176.699 99.4454 176.699H101.342C101.605 176.699 101.817 176.912 101.817 177.173C101.817 177.436 101.605 177.647 101.342 177.647ZM106.401 177.647H104.504C104.243 177.647 104.03 177.436 104.03 177.173C104.03 176.912 104.243 176.699 104.504 176.699H106.401C106.663 176.699 106.875 176.912 106.875 177.173C106.875 177.436 106.663 177.647 106.401 177.647ZM111.459 177.647H109.562C109.301 177.647 109.088 177.436 109.088 177.173C109.088 176.912 109.301 176.699 109.562 176.699H111.459C111.721 176.699 111.933 176.912 111.933 177.173C111.933 177.436 111.721 177.647 111.459 177.647ZM116.517 177.647H114.62C114.36 177.647 114.146 177.436 114.146 177.173C114.146 176.912 114.36 176.699 114.62 176.699H116.517C116.78 176.699 116.992 176.912 116.992 177.173C116.992 177.436 116.78 177.647 116.517 177.647ZM121.576 177.647H119.679C119.418 177.647 119.205 177.436 119.205 177.173C119.205 176.912 119.418 176.699 119.679 176.699H121.576C121.838 176.699 122.05 176.912 122.05 177.173C122.05 177.436 121.838 177.647 121.576 177.647Z" fill="#B3CDFA"/>
<path d="M289.433 172.26H287.537C287.276 172.26 287.062 172.048 287.062 171.785C287.062 171.523 287.276 171.311 287.537 171.311H289.433C289.696 171.311 289.908 171.523 289.908 171.785C289.908 172.048 289.696 172.26 289.433 172.26ZM294.492 172.26H292.595C292.334 172.26 292.121 172.048 292.121 171.785C292.121 171.523 292.334 171.311 292.595 171.311H294.492C294.754 171.311 294.966 171.523 294.966 171.785C294.966 172.048 294.754 172.26 294.492 172.26ZM299.55 172.26H297.653C297.392 172.26 297.179 172.048 297.179 171.785C297.179 171.523 297.392 171.311 297.653 171.311H299.55C299.813 171.311 300.024 171.523 300.024 171.785C300.024 172.048 299.813 172.26 299.55 172.26ZM304.608 172.26H302.712C302.451 172.26 302.237 172.048 302.237 171.785C302.237 171.523 302.451 171.311 302.712 171.311H304.608C304.871 171.311 305.083 171.523 305.083 171.785C305.083 172.048 304.871 172.26 304.608 172.26ZM309.667 172.26H307.77C307.509 172.26 307.296 172.048 307.296 171.785C307.296 171.523 307.509 171.311 307.77 171.311H309.667C309.929 171.311 310.141 171.523 310.141 171.785C310.141 172.048 309.929 172.26 309.667 172.26Z" fill="#B3CDFA"/>
<path d="M83.9592 159.412C83.6984 159.412 83.485 159.2 83.485 158.937V157.04C83.485 156.778 83.6984 156.566 83.9592 156.566C84.2216 156.566 84.4334 156.778 84.4334 157.04V158.937C84.4334 159.2 84.2216 159.412 83.9592 159.412ZM83.9592 164.47C83.6984 164.47 83.485 164.258 83.485 163.996V162.099C83.485 161.836 83.6984 161.625 83.9592 161.625C84.2216 161.625 84.4334 161.836 84.4334 162.099V163.996C84.4334 164.258 84.2216 164.47 83.9592 164.47ZM83.9592 169.528C83.6984 169.528 83.485 169.316 83.485 169.054V167.157C83.485 166.895 83.6984 166.683 83.9592 166.683C84.2216 166.683 84.4334 166.895 84.4334 167.157V169.054C84.4334 169.316 84.2216 169.528 83.9592 169.528Z" fill="#B3CDFA"/>
<path d="M324.877 160.897C324.616 160.897 324.403 160.686 324.403 160.423V158.526C324.403 158.264 324.616 158.052 324.877 158.052C325.139 158.052 325.351 158.264 325.351 158.526V160.423C325.351 160.686 325.139 160.897 324.877 160.897ZM324.877 165.956C324.616 165.956 324.403 165.744 324.403 165.482V163.585C324.403 163.322 324.616 163.11 324.877 163.11C325.139 163.11 325.351 163.322 325.351 163.585V165.482C325.351 165.744 325.139 165.956 324.877 165.956Z" fill="#B3CDFA"/>
<path d="M208.157 82.7422C207.895 82.7422 207.683 82.5299 207.683 82.268V80.3711C207.683 80.1092 207.895 79.8969 208.157 79.8969C208.42 79.8969 208.632 80.1092 208.632 80.3711V82.268C208.632 82.5299 208.42 82.7422 208.157 82.7422ZM208.157 87.8009C207.895 87.8009 207.683 87.589 207.683 87.3266V85.4298C207.683 85.1674 207.895 84.9552 208.157 84.9552C208.42 84.9552 208.632 85.1674 208.632 85.4298V87.3266C208.632 87.589 208.42 87.8009 208.157 87.8009ZM208.157 92.8592C207.895 92.8592 207.683 92.6458 207.683 92.3851V90.4883C207.683 90.2257 207.895 90.014 208.157 90.014C208.42 90.014 208.632 90.2257 208.632 90.4883V92.3851C208.632 92.6458 208.42 92.8592 208.157 92.8592ZM208.157 97.9175C207.895 97.9175 207.683 97.7041 207.683 97.4433V95.5464C207.683 95.284 207.895 95.0722 208.157 95.0722C208.42 95.0722 208.632 95.284 208.632 95.5464V97.4433C208.632 97.7041 208.42 97.9175 208.157 97.9175ZM208.157 102.457C207.895 102.457 207.683 102.246 207.683 101.983V100.605C207.683 100.342 207.895 100.131 208.157 100.131C208.42 100.131 208.632 100.342 208.632 100.605V101.983C208.632 102.246 208.42 102.457 208.157 102.457Z" fill="#B3CDFA"/>
<path d="M153.177 50.5673H153.176L151.279 50.5591C151.017 50.558 150.806 50.3447 150.806 50.0828C150.808 49.8217 151.02 49.6106 151.281 49.6106H151.284L153.181 49.6189C153.441 49.62 153.653 49.8332 153.652 50.0951C153.652 50.3564 153.44 50.5673 153.177 50.5673ZM158.236 50.5893H158.234L156.337 50.581C156.075 50.5799 155.865 50.3665 155.865 50.1048C155.866 49.8435 156.078 49.6326 156.339 49.6326H156.342L158.239 49.6408C158.5 49.6419 158.712 49.8553 158.71 50.1171C158.71 50.3784 158.497 50.5893 158.236 50.5893ZM163.294 50.6112H163.292L161.396 50.603C161.133 50.6018 160.923 50.3885 160.923 50.1266C160.925 49.8655 161.136 49.6546 161.397 49.6546H161.4L163.297 49.6628C163.558 49.6639 163.77 49.8772 163.768 50.1391C163.768 50.4002 163.555 50.6112 163.294 50.6112ZM168.352 50.6332H168.351L166.454 50.625C166.192 50.6237 165.981 50.4105 165.981 50.1487C165.983 49.8874 166.195 49.6766 166.456 49.6766H166.459L168.356 49.6848C168.616 49.6859 168.828 49.8991 168.827 50.1611C168.827 50.4223 168.613 50.6332 168.352 50.6332ZM173.411 50.6552H173.409L171.512 50.6468C171.25 50.6457 171.04 50.4325 171.04 50.1705C171.041 49.9094 171.253 49.6984 171.514 49.6984H171.517L173.414 49.7068C173.675 49.7079 173.887 49.9211 173.885 50.183C173.885 50.4442 173.672 50.6552 173.411 50.6552ZM147.22 52.9425C147.161 52.9425 147.101 52.9318 147.044 52.9088C146.801 52.8119 146.682 52.5361 146.779 52.2928C147.041 51.6321 147.471 51.042 148.023 50.5864C148.223 50.4192 148.522 50.4475 148.69 50.6492C148.857 50.8509 148.829 51.1498 148.626 51.3169C148.198 51.6714 147.865 52.1302 147.659 52.6436C147.586 52.8295 147.408 52.9425 147.22 52.9425ZM146.951 57.9664C146.69 57.9664 146.477 57.7539 146.477 57.4922V55.5953C146.477 55.3334 146.69 55.1211 146.951 55.1211C147.213 55.1211 147.425 55.3334 147.425 55.5953V57.4922C147.425 57.7539 147.213 57.9664 146.951 57.9664ZM146.951 62.7142C146.69 62.7142 146.477 62.502 146.477 62.24V60.6536C146.477 60.3917 146.69 60.1794 146.951 60.1794C147.213 60.1794 147.425 60.3917 147.425 60.6536V62.24C147.425 62.502 147.213 62.7142 146.951 62.7142Z" fill="#B3CDFA"/>
<path d="M262.66 50.5673C262.4 50.5673 262.188 50.3564 262.186 50.0951C262.185 49.8332 262.396 49.62 262.659 49.6189L264.556 49.6106H264.557C264.818 49.6106 265.03 49.8217 265.031 50.083C265.033 50.3447 264.821 50.558 264.559 50.5591L262.662 50.5673H262.66ZM257.602 50.5893C257.341 50.5893 257.129 50.3784 257.128 50.1171C257.126 49.8553 257.338 49.6419 257.6 49.6408L259.497 49.6326H259.499C259.76 49.6326 259.972 49.8435 259.973 50.1048C259.975 50.3665 259.763 50.5799 259.501 50.581L257.604 50.5893H257.602ZM252.544 50.6112C252.283 50.6112 252.071 50.4002 252.07 50.1391C252.068 49.8772 252.28 49.6639 252.542 49.6628L254.439 49.6546H254.441C254.701 49.6546 254.913 49.8655 254.915 50.1266C254.916 50.3885 254.705 50.6018 254.442 50.603L252.545 50.6112H252.544ZM247.485 50.6332C247.225 50.6332 247.013 50.4223 247.011 50.1611C247.011 49.8991 247.221 49.6859 247.484 49.6848L249.381 49.6766H249.382C249.643 49.6766 249.856 49.8874 249.856 50.1487C249.858 50.4105 249.646 50.6237 249.384 50.625L247.487 50.6332H247.485ZM242.427 50.6552C242.166 50.6552 241.954 50.4442 241.953 50.183C241.953 49.9211 242.163 49.7079 242.425 49.7068L244.322 49.6984H244.324C244.585 49.6984 244.798 49.9094 244.798 50.1705C244.8 50.4325 244.588 50.6457 244.326 50.6468L242.429 50.6552H242.427ZM268.62 52.9425C268.432 52.9425 268.253 52.8295 268.179 52.6437C267.975 52.1302 267.64 51.6713 267.211 51.3169C267.011 51.1498 266.982 50.8509 267.15 50.6492C267.316 50.4475 267.614 50.4192 267.817 50.5864C268.367 51.0418 268.797 51.6319 269.061 52.2927C269.157 52.5359 269.039 52.8118 268.795 52.9087C268.737 52.9318 268.678 52.9425 268.62 52.9425ZM268.887 57.9664C268.626 57.9664 268.413 57.7539 268.413 57.4922V55.5953C268.413 55.3334 268.626 55.1211 268.887 55.1211C269.149 55.1211 269.361 55.3334 269.361 55.5953V57.4922C269.361 57.7539 269.149 57.9664 268.887 57.9664ZM268.887 63.0247C268.626 63.0247 268.413 62.8123 268.413 62.5505V60.6536C268.413 60.3917 268.626 60.1794 268.887 60.1794C269.149 60.1794 269.361 60.3917 269.361 60.6536V62.5505C269.361 62.8123 269.149 63.0247 268.887 63.0247ZM268.887 68.083C268.626 68.083 268.413 67.8706 268.413 67.6088V65.7119C268.413 65.45 268.626 65.2377 268.887 65.2377C269.149 65.2377 269.361 65.45 269.361 65.7119V67.6088C269.361 67.8706 269.149 68.083 268.887 68.083ZM268.887 73.1414C268.626 73.1414 268.413 72.9289 268.413 72.6672V70.7703C268.413 70.5084 268.626 70.2961 268.887 70.2961C269.149 70.2961 269.361 70.5084 269.361 70.7703V72.6672C269.361 72.9289 269.149 73.1414 268.887 73.1414ZM268.887 78.1997C268.626 78.1997 268.413 77.9873 268.413 77.7255V75.8286C268.413 75.5667 268.626 75.3544 268.887 75.3544C269.149 75.3544 269.361 75.5667 269.361 75.8286V77.7255C269.361 77.9873 269.149 78.1997 268.887 78.1997Z" fill="#B3CDFA"/>
<path d="M155.113 193.355H129.934C127.861 193.355 126.181 191.676 126.181 189.604V164.425C126.181 162.352 127.861 160.672 129.934 160.672H155.113C157.186 160.672 158.866 162.352 158.866 164.425V189.604C158.866 191.676 157.186 193.355 155.113 193.355Z" fill="white"/>
<path d="M155.267 160.672H129.78C127.793 160.672 126.181 162.284 126.181 164.271V168.655H158.866V164.271C158.866 162.284 157.254 160.672 155.267 160.672Z" fill="#3068B2"/>
<path d="M130.817 164.989C130.817 165.427 130.462 165.781 130.025 165.781C129.588 165.781 129.234 165.427 129.234 164.989C129.234 164.553 129.588 164.199 130.025 164.199C130.462 164.199 130.817 164.553 130.817 164.989Z" fill="white"/>
<path d="M133.846 164.989C133.846 165.427 133.492 165.781 133.054 165.781C132.618 165.781 132.264 165.427 132.264 164.989C132.264 164.553 132.618 164.199 133.054 164.199C133.492 164.199 133.846 164.553 133.846 164.989Z" fill="white"/>
<path d="M136.876 164.989C136.876 165.427 136.522 165.781 136.084 165.781C135.648 165.781 135.294 165.427 135.294 164.989C135.294 164.553 135.648 164.199 136.084 164.199C136.522 164.199 136.876 164.553 136.876 164.989Z" fill="white"/>
<path d="M154.805 175.488H130.242C129.801 175.488 129.444 175.131 129.444 174.69C129.444 174.25 129.801 173.893 130.242 173.893H154.805C155.246 173.893 155.603 174.25 155.603 174.69C155.603 175.131 155.246 175.488 154.805 175.488Z" fill="#E3EDFE"/>
<path d="M147.276 175.488H130.242C129.801 175.488 129.444 175.131 129.444 174.69C129.444 174.25 129.801 173.893 130.242 173.893H147.276C147.717 173.893 148.074 174.25 148.074 174.69C148.074 175.131 147.717 175.488 147.276 175.488Z" fill="#002DAA"/>
<path d="M154.805 181.553H130.242C129.801 181.553 129.444 181.196 129.444 180.755C129.444 180.316 129.801 179.958 130.242 179.958H154.805C155.246 179.958 155.603 180.316 155.603 180.755C155.603 181.196 155.246 181.553 154.805 181.553Z" fill="#E3EDFE"/>
<path d="M136.789 181.553H130.242C129.801 181.553 129.444 181.196 129.444 180.755C129.444 180.316 129.801 179.958 130.242 179.958H136.789C137.23 179.958 137.587 180.316 137.587 180.755C137.587 181.196 137.23 181.553 136.789 181.553Z" fill="#002DAA"/>
<path d="M154.805 187.616H130.242C129.801 187.616 129.444 187.259 129.444 186.818C129.444 186.378 129.801 186.021 130.242 186.021H154.805C155.246 186.021 155.603 186.378 155.603 186.818C155.603 187.259 155.246 187.616 154.805 187.616Z" fill="#E3EDFE"/>
<path d="M142.371 187.616H130.242C129.801 187.616 129.444 187.259 129.444 186.818C129.444 186.378 129.801 186.021 130.242 186.021H142.371C142.812 186.021 143.169 186.378 143.169 186.818C143.169 187.259 142.812 187.616 142.371 187.616Z" fill="#002DAA"/>
<path d="M149.834 174.69C149.834 175.662 149.045 176.449 148.075 176.449C147.103 176.449 146.314 175.662 146.314 174.69C146.314 173.719 147.103 172.931 148.075 172.931C149.045 172.931 149.834 173.719 149.834 174.69Z" fill="#FFC132"/>
<path d="M146.921 174.69C146.921 173.822 147.55 173.103 148.377 172.959C148.279 172.942 148.178 172.931 148.075 172.931C147.103 172.931 146.314 173.719 146.314 174.69C146.314 175.662 147.103 176.449 148.075 176.449C148.178 176.449 148.279 176.44 148.377 176.422C147.55 176.279 146.921 175.558 146.921 174.69Z" fill="#BC8300"/>
<path d="M139.347 180.755C139.347 181.728 138.56 182.515 137.588 182.515C136.616 182.515 135.829 181.728 135.829 180.755C135.829 179.785 136.616 178.996 137.588 178.996C138.56 178.996 139.347 179.785 139.347 180.755Z" fill="#FFC132"/>
<path d="M136.436 180.755C136.436 179.888 137.065 179.168 137.892 179.025C137.792 179.007 137.692 178.996 137.588 178.996C136.616 178.996 135.829 179.785 135.829 180.755C135.829 181.728 136.616 182.515 137.588 182.515C137.692 182.515 137.792 182.505 137.892 182.488C137.065 182.344 136.436 181.623 136.436 180.755Z" fill="#BC8300"/>
<path d="M144.628 186.821C144.628 187.793 143.841 188.58 142.868 188.58C141.898 188.58 141.109 187.793 141.109 186.821C141.109 185.85 141.898 185.061 142.868 185.061C143.841 185.061 144.628 185.85 144.628 186.821Z" fill="#FFC132"/>
<path d="M141.716 186.821C141.716 185.953 142.345 185.234 143.172 185.09C143.074 185.073 142.973 185.061 142.868 185.061C141.898 185.061 141.109 185.85 141.109 186.821C141.109 187.793 141.898 188.58 142.868 188.58C142.973 188.58 143.074 188.571 143.172 188.553C142.345 188.409 141.716 187.689 141.716 186.821Z" fill="#BC8300"/>
<path d="M329.817 157.178H320.099C318.343 157.178 316.918 155.754 316.918 153.998V144.281C316.918 142.523 318.343 141.1 320.099 141.1H329.817C331.573 141.1 332.998 142.523 332.998 144.281V153.998C332.998 155.754 331.573 157.178 329.817 157.178Z" fill="#FFC132"/>
<path d="M321.664 149.513V149.532L323.365 150.09V151.036L320.64 149.927V149.107L323.365 147.997V148.941L321.664 149.513Z" fill="white"/>
<path d="M324.679 151.575H323.629L325.159 146.703H326.211L324.679 151.575Z" fill="white"/>
<path d="M328.245 149.525V149.506L326.56 148.945V148.003L329.268 149.113V149.932L326.56 151.041V150.099L328.245 149.525Z" fill="white"/>
<path d="M278.699 158.576C277.226 158.576 276.143 158.527 275.484 158.431C272.83 158.044 271.228 156.857 270.482 156.153V156.142C270.443 156.106 270.394 156.063 270.36 156.028C270.315 156.074 270.253 156.13 270.201 156.18C269.44 156.901 267.849 158.086 265.31 158.396C264.581 158.485 263.361 158.531 261.678 158.531C259.471 158.531 257.021 158.452 256.003 158.415C256.049 163.965 256.899 168.554 258.116 172.315C259.536 176.707 261.455 179.97 263.201 182.256C266.271 186.276 269.376 188.15 270.195 188.602L270.201 188.598C270.236 188.579 270.296 188.539 270.338 188.514V188.508C271.317 187.921 274.255 185.969 277.184 182.087C278.906 179.806 280.796 176.587 282.211 172.316C283.46 168.543 284.339 163.951 284.388 158.422C283.352 158.471 280.864 158.576 278.699 158.576Z" fill="white"/>
<path d="M256.485 158.905C256.568 163.686 257.268 168.145 258.569 172.168C259.772 175.892 261.458 179.188 263.581 181.967C266.335 185.574 269.098 187.412 270.182 188.048C271.314 187.357 274.047 185.457 276.807 181.799C278.894 179.036 280.561 175.794 281.763 172.165C283.1 168.124 283.822 163.67 283.908 158.916C282.716 158.969 280.577 159.049 278.701 159.049C277.206 159.049 276.101 158.999 275.418 158.899C272.849 158.524 271.202 157.416 270.359 156.678C269.52 157.426 267.874 158.559 265.369 158.866C264.621 158.956 263.38 159.003 261.68 159.003C259.767 159.003 257.657 158.943 256.485 158.905ZM270.206 189.148L269.967 189.015C269.077 188.525 265.932 186.609 262.827 182.542C260.639 179.678 258.904 176.286 257.666 172.46C256.291 168.206 255.572 163.482 255.531 158.419L255.526 157.922L256.021 157.94C256.985 157.974 259.467 158.055 261.68 158.055C263.343 158.055 264.544 158.011 265.254 157.924C267.671 157.628 269.188 156.488 269.876 155.836L269.937 155.777C269.969 155.749 270.001 155.719 270.026 155.693L270.361 155.357L270.698 155.692C270.713 155.709 270.734 155.727 270.755 155.746L270.962 155.94V155.945C271.706 156.604 273.194 157.616 275.554 157.96C276.192 158.053 277.251 158.101 278.701 158.101C280.863 158.101 283.383 157.993 284.368 157.946L284.869 157.924L284.864 158.425C284.82 163.464 284.079 168.187 282.662 172.463C281.429 176.191 279.714 179.524 277.564 182.371C274.815 186.015 272.071 187.986 270.815 188.772V188.773L270.532 188.95C270.503 188.969 270.473 188.987 270.451 189.001L270.206 189.148Z" fill="#002DAA"/>
<path d="M270.168 185.243C269.052 184.514 267.062 182.993 265.059 180.369C263.225 177.97 261.768 175.115 260.723 171.887C259.683 168.669 259.082 165.128 258.934 161.339C259.978 161.367 261.313 161.396 262.56 161.396C264.145 161.396 265.268 161.353 265.987 161.265C267.956 161.024 269.404 160.267 270.345 159.587C271.285 160.254 272.732 161.001 274.728 161.291C275.397 161.389 276.407 161.437 277.815 161.437C279.044 161.437 280.392 161.399 281.451 161.361C281.295 165.121 280.677 168.653 279.61 171.878C278.568 175.026 277.123 177.834 275.319 180.224C273.288 182.916 271.246 184.511 270.168 185.243Z" fill="#3068B2"/>
<path d="M270.177 188.048C269.882 187.874 269.46 187.61 268.948 187.247C269.531 186.469 270.119 185.666 270.672 184.884C271.815 184.043 273.571 182.539 275.318 180.224C277.122 177.833 278.566 175.026 279.608 171.877C279.727 171.515 279.842 171.152 279.95 170.782C278.914 175.352 277.283 178.88 275.731 181.425C273.753 184.664 271.659 186.79 270.318 187.961C270.269 187.991 270.222 188.021 270.177 188.048Z" fill="white"/>
<path d="M269.8 188.362C269.576 188.239 269.17 187.997 268.651 187.645C268.751 187.514 268.85 187.381 268.951 187.248C269.464 187.612 269.886 187.876 270.181 188.049C270.225 188.023 270.273 187.993 270.322 187.962C270.205 188.065 270.093 188.16 269.988 188.247C269.928 188.283 269.851 188.332 269.805 188.359L269.8 188.362Z" fill="#1A42B3"/>
<path d="M278.084 161.434C278.089 160.658 278.074 159.862 278.043 159.046C278.253 159.047 278.471 159.049 278.699 159.049C279.446 159.049 280.234 159.036 280.988 159.017C281.016 159.822 281.026 160.608 281.016 161.374C280.118 161.404 279.072 161.431 278.084 161.434Z" fill="white"/>
<path d="M278.696 159.05C278.468 159.05 278.25 159.049 278.04 159.047C278.034 158.889 278.026 158.731 278.02 158.573C278.097 158.573 278.163 158.575 278.244 158.575C279.14 158.575 280.087 158.557 280.966 158.532C280.972 158.695 280.979 158.857 280.985 159.019C280.231 159.038 279.444 159.05 278.696 159.05Z" fill="#1A42B3"/>
<path d="M270.675 184.884C271.502 183.721 272.251 182.606 272.795 181.716C274.355 179.159 275.994 175.607 277.029 171.005C277.657 168.211 278.062 165.029 278.084 161.436C279.072 161.432 280.118 161.406 281.016 161.376C280.98 164.874 280.581 167.981 279.968 170.714C279.963 170.737 279.957 170.76 279.952 170.782C279.845 171.152 279.729 171.516 279.611 171.878C278.569 175.027 277.124 177.834 275.321 180.224C273.574 182.54 271.818 184.043 270.675 184.884Z" fill="#1A42B3"/>
<path d="M269.151 174.795L266.505 172.149L267.5 171.155L269.151 172.806L273.182 168.776L274.177 169.77L269.151 174.795Z" fill="white"/>
<path d="M296.028 91.5701C296.028 91.9242 295.741 92.2103 295.389 92.2103C295.036 92.2103 294.75 91.9242 294.75 91.5701C294.75 91.2178 295.036 90.9315 295.389 90.9315C295.741 90.9315 296.028 91.2178 296.028 91.5701Z" fill="#002DAA"/>
<path d="M123.329 73.5225C123.329 73.8754 123.043 74.1615 122.691 74.1615C122.338 74.1615 122.052 73.8754 122.052 73.5225C122.052 73.1697 122.338 72.8836 122.691 72.8836C123.043 72.8836 123.329 73.1697 123.329 73.5225Z" fill="#002DAA"/>
<path d="M60.1577 173.089C60.1577 173.442 59.8716 173.728 59.5191 173.728C59.1666 173.728 58.8803 173.442 58.8803 173.089C58.8803 172.737 59.1666 172.451 59.5191 172.451C59.8716 172.451 60.1577 172.737 60.1577 173.089Z" fill="#FFC132"/>
<path d="M342.556 169.99C342.556 170.344 342.272 170.629 341.917 170.629C341.565 170.629 341.279 170.344 341.279 169.99C341.279 169.637 341.565 169.351 341.917 169.351C342.272 169.351 342.556 169.637 342.556 169.99Z" fill="#FFC132"/>
<path d="M295.382 78.9599C295.382 79.4877 294.954 79.9156 294.426 79.9156C293.898 79.9156 293.471 79.4877 293.471 78.9599C293.471 78.4319 293.898 78.004 294.426 78.004C294.954 78.004 295.382 78.4319 295.382 78.9599Z" fill="#FFC132"/>
<path d="M41.4617 167.417C41.4617 167.945 41.0338 168.372 40.5058 168.372C39.978 168.372 39.5501 167.945 39.5501 167.417C39.5501 166.889 39.978 166.461 40.5058 166.461C41.0338 166.461 41.4617 166.889 41.4617 167.417Z" fill="#002DAA"/>
<path d="M351.326 146.648C351.326 147.176 350.897 147.604 350.371 147.604C349.843 147.604 349.414 147.176 349.414 146.648C349.414 146.12 349.843 145.692 350.371 145.692C350.897 145.692 351.326 146.12 351.326 146.648Z" fill="#002DAA"/>
<path d="M103.691 73.5225C103.691 74.0503 103.263 74.4782 102.735 74.4782C102.207 74.4782 101.78 74.0503 101.78 73.5225C101.78 72.9946 102.207 72.5667 102.735 72.5667C103.263 72.5667 103.691 72.9946 103.691 73.5225Z" fill="#FFC132"/>
<path d="M308.388 82.1969C308.388 82.9035 307.814 83.4764 307.107 83.4764C306.401 83.4764 305.828 82.9035 305.828 82.1969C305.828 81.4903 306.401 80.9175 307.107 80.9175C307.814 80.9175 308.388 81.4903 308.388 82.1969Z" fill="#1067DB"/>
<path d="M58.7644 157.04C58.7644 157.746 58.1906 158.318 57.484 158.318C56.7774 158.318 56.2052 157.746 56.2052 157.04C56.2052 156.333 56.7774 155.761 57.484 155.761C58.1906 155.761 58.7644 156.333 58.7644 157.04Z" fill="#1067DB"/>
<path d="M367.535 164.197C367.535 164.904 366.962 165.476 366.255 165.476C365.548 165.476 364.976 164.904 364.976 164.197C364.976 163.49 365.548 162.917 366.255 162.917C366.962 162.917 367.535 163.49 367.535 164.197Z" fill="#1067DB"/>
<path d="M123.326 58.8253C123.326 59.5318 122.754 60.1047 122.047 60.1047C121.341 60.1047 120.767 59.5318 120.767 58.8253C120.767 58.1185 121.341 57.5457 122.047 57.5457C122.754 57.5457 123.326 58.1185 123.326 58.8253Z" fill="#1067DB"/>
</svg>
